<svg xmlns="http://www.w3.org/2000/svg" viewBox="0 0 400 553"><g fill="#fff"><path d="M32.09 255.26c-3.89-2.44-6.96-7.5-7.59-13.65-1.08-8.95 3.07-16.9 9.49-18.08-.81 9.85-1.36 20.61-1.9 31.73Zm168.68 120.4c-24.77 13.29-35.16-3.34-34.89-9.22 29.74-2.44 34.71-15.82 34.71-15.82s4.97 13.38 34.71 15.82c.27 5.97-11.03 22.6-34.53 9.22Z"/><path d="M274.98 345.11c-39.95-22.87-51.71-33.99-73.94-21.78l-.63.36-.36-.18c-22.15-12.38-34.08-1.18-74.12 21.69-40.05 22.87-87.86-32.9-74.21-130.7 13.74-97.8 49.99-124.83 61.11-123.56 10.85 1.18 82.8 3.43 87.77 3.43s76.66-2.17 87.41-3.43c11.21-1.18 47.37 25.58 61.11 123.38 13.74 97.89-34.08 153.75-74.12 130.79Zm91.12-88.85c-.54-11.66-1.18-22.69-1.99-32.9h1.54c6.78.9 11.3 8.95 10.03 18.17-.9 7.23-4.7 12.93-9.58 14.73Z"/></g><path d="M374.42 294.13c-2.35-8.86-.99-18.62-.36-22.33.18-1.08.36-1.63.36-1.63 8.95-9.67 15.82-26.48 15.82-36.43 0-14.73-11.75-26.66-26.21-26.66h-1.08c-2.62-30.64-5.51-49.89-5.51-49.89C353.01 74.66 283.13 9.95 199.52 9.95S44.56 74.39 40.59 157.01c0 0-2.8 19.25-5.33 49.89-14.01.54-25.31 12.2-25.31 26.57 0 10.03 6.87 26.76 15.82 36.43 0 0 .09.54.36 1.63.63 3.8 2.08 13.65-.36 22.33-1.08 1.81-1.81 3.89-1.81 6.24 0 4.88 2.89 8.95 6.87 10.3 0 42.75 1.18 89.3 8.95 132.87 2.44 3.07 6.6 6.33 6.6 6.33v22.24l12.66 5.33 10.03 23.86H83.8l11.75 20.07h20.43l20.43 14.37 27.3-7.23 34.08 15h2.44l33.63-15.64 26.76 8.5 20.43-15h20.43l11.75-20.07h14.92l7.86-23.86 10.4-5.33V449.6s6.42-3.34 8.86-6.33c7.59-43.48 10.94-89.94 10.85-132.42 4.88-.45 9.04-4.97 9.04-10.67 0-2.35-.45-4.43-1.54-6.24.63.18.81.18.81.18ZM32.09 255.26c-3.89-2.44-6.96-7.5-7.59-13.65-1.08-8.95 3.07-16.9 9.49-18.08-.81 9.85-1.36 20.61-1.9 31.73Zm168.68 120.4c-24.77 13.29-35.16-3.34-34.89-9.22 29.74-2.44 34.71-15.82 34.71-15.82s4.97 13.38 34.71 15.82c.27 5.97-11.03 22.6-34.53 9.22Zm74.21-30.55c-39.95-22.87-51.71-33.99-73.94-21.78l-1.63.36-1.45-.18c-22.69-12.38-32.99-1.18-73.04 21.69-40.05 22.87-87.32-32.9-73.67-130.7 13.74-97.8 50.26-123.83 61.38-122.48 10.85 1.18 82.98 4.43 87.95 4.43s76.66-3.34 87.41-4.43c11.21-1.18 47.37 25.04 61.11 122.93 13.74 97.8-34.08 153.12-74.12 130.16Zm91.12-88.85c-.54-11.66-1.18-22.69-1.99-32.9h1.54c6.78.9 11.3 8.95 10.03 18.17-.9 7.23-4.7 12.93-9.58 14.73Z"/><path fill="#fff" d="M199.41 9.94c83.71 0 153.58 64.72 157.83 147.06 0 0 2.8 19.25 5.51 49.89h1.18c14.46 0 26.21 11.93 26.21 26.66 0 10.03-6.87 26.76-15.82 36.43 0 0-.09.54-.36 1.63-.63 3.8-2.08 13.65.36 22.33h-.09c1.08 1.81 1.63 3.89 1.63 6.24 0 5.6-4.07 10.21-8.95 10.67 0 42.57-2.98 88.94-10.67 132.42-2.44 3.07-8.41 6.33-8.41 6.33v22.24l-10.85 5.24-8.32 23.77h-14.82l-11.75 19.8h-20.43l-20.43 15.19-26.76-8.32-33.63 15.46h-2.44l-34.08-15-27.3 7.32-20.61-14.64H95.98l-11.75-19.8H69.31l-9.76-23.77-12.2-5.24v-22.24s-4.61-3.34-7.05-6.33c-7.59-43.75-9.31-90.3-9.31-132.87-3.89-1.36-6.87-5.42-6.87-10.3 0-2.35.63-4.43 1.81-6.24 2.35-8.86.99-18.62.36-22.33-.18-1.08-.36-1.63-.36-1.63-8.95-9.67-15.82-26.48-15.82-36.43 0-14.37 11.3-26.03 25.31-26.57 2.53-30.64 5.33-49.89 5.33-49.89C44.56 74.39 115.62 9.94 199.41 9.94m-92.38 340.31c6.06 0 12.38-1.63 18.35-5.06 28.66-16.36 42.49-26.76 56.23-26.76 5.42 0 10.85 1.63 17.27 5.06l.99.18 1.18-.36c6.24-3.43 11.66-4.97 17.18-4.97 13.92 0 28.11 10.39 56.77 26.76 6.06 3.53 12.29 5.06 18.44 5.06 34.62 0 67.16-52.43 55.68-135.58-13.38-95.81-48.36-123.2-60.29-123.02h-.81c-10.76 1.18-82.44 4.34-87.41 4.34s-77.02-3.07-87.86-4.34h-.81c-11.93 0-47.19 27.03-60.38 122.75-11.66 83.25 20.88 135.95 55.5 135.95m259.07-94c4.79-1.9 8.77-7.5 9.67-14.64 1.08-9.31-3.44-17.35-10.03-18.17h-1.54c.63 10.12 1.36 21.15 1.9 32.81m-334.01-.99c.54-11.3 1.18-21.87 1.9-31.64-6.42 1.18-10.67 9.22-9.49 18.08.63 6.06 3.71 11.12 7.59 13.56m151.5 125.55c4.61 0 10.4-1.45 17.18-4.97 6.42 3.62 11.93 4.97 16.63 4.97 12.29 0 18.26-9.94 18.08-14.28-29.74-2.44-34.71-15.82-34.71-15.82s-4.97 13.38-34.71 15.82c-.54 4.25 4.88 14.28 17.54 14.28M199.41 0c-43.12 0-84.43 16.09-116.07 45.28-31.82 29.2-50.62 68.61-52.7 110.82-.45 2.89-2.44 18.35-4.61 42.39C10.84 203.01 0 216.93 0 233.56c0 12.2 7.05 29.56 16.45 40.95.45 3.25 1.18 9.85 0 15.82a22.004 22.004 0 0 0-2.35 9.94c0 6.24 2.53 11.84 6.87 15.73.09 37.15 1.54 84.24 9.49 129.17l.45 2.44 1.54 1.99c1.45 1.81 3.25 3.53 4.88 4.88v23.95l5.97 2.53 8.41 3.53 8.23 20.07 2.53 6.24h15.91l8.95 15 2.89 4.88h22.96l17.9 12.74 3.8 2.62 4.52-1.18 23.86-6.42 31.01 13.65 1.9.9h6.69l1.99-.9 30.19-13.92 23.14 7.23 4.79 1.45 4.07-2.98 17.81-13.29h22.87l2.89-4.88 8.95-15h16.27l2.35-6.6 6.96-19.89 7.05-3.43 5.6-2.62V455.2c2.17-1.54 4.52-3.53 6.24-5.6l1.54-1.99.45-2.44c6.78-38.32 10.49-82.25 10.76-127.72 5.42-3.8 8.95-10.21 8.95-17.26 0-3.43-.81-6.6-2.08-9.4-1.45-6.06-.63-13.02-.09-16.27 9.4-11.39 16.45-28.74 16.45-40.95 0-17.35-12.02-32-28.2-35.7-2.17-23.68-4.34-38.96-4.79-41.85-2.35-41.94-20.79-81.26-52.25-110.46C283.48 16.18 242.44 0 199.41 0Zm1.27 105.94c5.33 0 76.38-3.07 88.32-4.34 5.88.81 37.6 23.23 50.35 114.43 6.51 46.91-1.18 88.31-20.7 110.73-7.59 8.86-16.27 13.47-25.04 13.47-4.52 0-9.04-1.18-13.47-3.89-5.6-3.25-10.76-6.33-15.28-8.95-20.25-11.93-32.54-19.16-46.37-19.16-6.06 0-11.93 1.45-18.35 4.43-6.42-2.98-12.29-4.43-18.26-4.43-13.65 0-25.31 6.96-44.93 18.62-4.79 2.89-10.31 6.06-16.27 9.49-4.43 2.53-8.95 3.8-13.47 3.8-8.59 0-17.27-4.61-24.86-13.38-19.62-22.51-27.3-64-20.79-111.09C74.12 124.74 105.94 102.32 112 101.6c12.02 1.36 83.34 4.34 88.68 4.34Z"/><path d="M166.15 187.01c-43.03-8.23-68.61 15.73-72.23 19.34-1.54 1.36-2.44 3.43-2.44 5.6 0 4.25 3.44 7.59 7.59 7.59 1.45 0 2.8-.45 3.89-1.08 0 0 1.08-.63 1.54-1.08 25.13-22.15 48.36-18.8 57.31-16.27 1.08.36 2.17 1.18 3.53 1.18.09 0 0 0 0 0h.63c4.34 0 7.86-3.43 7.86-7.77-.09-3.98-3.25-6.42-7.68-7.5Z"/><path d="m146.17 231.76 7.5-7.5c2.44-2.44 2.44-6.33 0-8.77s-6.33-2.44-8.77 0l-7.5 7.5-7.5-7.5c-2.44-2.44-6.33-2.44-8.77 0s-2.44 6.33 0 8.77l7.5 7.5-7.5 7.5c-2.44 2.44-2.44 6.33 0 8.77s6.33 2.44 8.77 0l7.5-7.5 7.5 7.5c2.44 2.44 6.33 2.44 8.77 0s2.44-6.33 0-8.77l-7.5-7.5Zm89.58-44.74c43.03-8.23 68.61 15.73 72.23 19.34 1.54 1.36 2.44 3.43 2.44 5.6 0 4.25-3.44 7.59-7.59 7.59-1.45 0-2.8-.45-3.89-1.08 0 0-1.08-.63-1.54-1.08-25.13-22.15-48.36-18.8-57.31-16.27-1.08.36-2.98 1.18-4.34 1.18h-.63.09c-4.34 0-7.41-3.43-7.41-7.77-.18-3.98 3.53-6.42 7.95-7.5Z"/><path d="m255.64 231.76-7.5-7.5c-2.44-2.44-2.44-6.33 0-8.77s6.33-2.44 8.77 0l7.5 7.5 7.5-7.5c2.44-2.44 6.33-2.44 8.77 0s2.44 6.33 0 8.77l-7.5 7.5 7.5 7.5c2.44 2.44 2.44 6.33 0 8.77s-6.33 2.44-8.77 0l-7.5-7.5-7.5 7.5c-2.44 2.44-6.33 2.44-8.77 0s-2.44-6.33 0-8.77l7.5-7.5Z"/></svg>